# xmcd CD database file
#
# Track frame offsets:
#	150
#	102156
#	140387
#	186834
#	253098
#
# Disc length: 3750 seconds
#
# Revision: 0
# Processed by: cddbd v1.5.1PL0 Copyright (c) Steve Scherf et al.
# Submitted via: CDex 1.51
#
DISCID=400ea405
DTITLE=INCONNU - SERENITE PAR LA MUSIQUE
DYEAR=2005
DGENRE=New Age
TTITLE0=PRELUDE A LA DETENTE
TTITLE1=HARMONIE
TTITLE2=SYMPHONIE DE L'ETRE
TTITLE3=DIAPASON DE LA VIE
TTITLE4=MUSIQUE CELESTE
EXTD=YEAR: 2005
EXTT0=
EXTT1=
EXTT2=
EXTT3=
EXTT4=
PLAYORDER=
